<?xml version="1.0" encoding="utf-8"?>
<!-- Generator: Adobe Illustrator 24.2.3, SVG Export Plug-In . SVG Version: 6.00 Build 0)  -->
<svg version="1.1" id="Laag_1" xmlns="http://www.w3.org/2000/svg" xmlns:xlink="http://www.w3.org/1999/xlink" x="0px" y="0px"
	 viewBox="0 0 2000 2000" style="enable-background:new 0 0 2000 2000;" xml:space="preserve">
<style type="text/css">
	.st0{fill:#ED1651;}
</style>
<g>
	<path class="st0" d="M1554,1313.1c-11-5.5-21.5-11-31.5-15.1c-11.9-5.5-22.4-5.5-30.6,0c-9.1,5.5-16,15.1-17.8,26
		c-1.8,9.1,0,17.8,4.6,24.2c1.8,2.7,4.6,6.4,6.4,9.1l0.9,1.8c-0.9,10-5.5,16.9-11,24.2l-1.8,2.7c-5.5,8.2-14.2,11-24.2,9.1
		c-7.3-1.8-15.1-4.6-21.5-6.4l-3.7-1.8c-17.8-6.4-34.3-14.2-50.2-21.5c-24.2-11-49.3-23.3-76.3-29.7c-39.7-10-95.9-8.2-124.7,33.3
		c-3.7,4.6-8.2,10-15.1,16c-6.4,5.5-12.8,11-20.6,16.9c-7.3,5.5-18.7,10-30.6,4.6c-15.1-6.4-28.8-5.5-42.9-4.6
		c-4.6,0-9.1,0.9-14.2,0h-1.8l-0.9,1.8c-2.7,3.7-5.5,7.3-9.1,11c-6.4,8.2-14.2,16.9-20.6,26s-12.8,18.7-18.7,28.8
		c-3.7,5.5-6.4,10-10.1,16c-16,24.2-30.6,42-47.5,55.7c-4.6,3.7-10.1,7.3-15.1,10c-2.7,0.9-4.6,1.8-5.5,0.9
		c-0.9-0.9-2.7-3.7-2.7-6.4c0-1.8,0-3.7,0-4.6c0-2.7,0-5.5-0.9-7.3c-1.8-9.1-8.2-16-17.8-16.9c-11-0.9-26-0.9-37,11
		c-4.6,5.5-10.1,11-15.1,16.9c-6.4,8.2-8.2,21.5-4.6,33.3s10.1,21.5,19.6,25.1c14.2,5.5,25.1,0.9,32.4-4.6l12.8,3.7
		c11,2.7,22.4,6.4,33.3,8.2l2.7,0.9c4.6,0.9,10.1,2.7,15.1,2.7c0.9,0,2.7,0,3.7,0c3.7-0.9,7.3-0.9,11-0.9c23.3-2.7,48.4-5.5,69-22.4
		c5.5-4.6,11-8.2,17.8-11.9c5.5-2.7,10.1-6.4,15.1-9.1c11.9-8.2,25.1-10,40.7-5.5c7.3,1.8,15.1,3.7,22.4,5.5l3.7,0.9
		c32.4,7.3,61.2-1.8,84.5-28.8c11-12.8,26-23.3,40.7-27c24.2-6.4,45.7-10,64.9-10c46.6-0.9,85.4-11,118.8-31.5
		c23.3-14.2,49.3-29.7,65.8-55.7c5.5-8.2,10.1-16,16-24.2l6.4-9.1h0.9c0.9,0,1.8-0.9,1.8-0.9h2.7c6.4,0,14.2-0.9,18.7-8.2l0.9-0.9
		c4.6-6.4,9.1-14.2,11-22.4C1578.2,1334.5,1570.9,1321.3,1554,1313.1z M1000.3,1547.4c3.7-4.6,7.3-9.1,10.1-12.8
		c15.1-19.6,29.7-37,43.9-54.8c9.1-11,18.7-16,28.8-16c2.7,0,5.5,0,8.2,0.9c1.8,0.9,4.6,0.9,6.4,0c0.9,0,2.7,0,3.7,0
		c33.3,6.4,58.5-11,78.1-28.8c2.7-1.8,4.6-4.6,7.3-7.3c1.8-1.8,3.7-3.7,5.5-5.5c22.4-21.5,49.3-28.8,83.6-23.3
		c38.8,6.4,74.5,22.4,115.1,44.8l0,0c-2.7,1.8-6.4,2.7-10.1,3.7h-1.8c-19.6,2.7-36.1,5.5-53.9,6.4c-11,0.9-23.3,0.9-34.3,0.9
		c-5.5,0-11.9,0-17.8,0c-15.1,0-27,6.4-38.8,12.8c-1.8,0.9-4.6,1.8-6.4,3.7c-12.8,6.4-25.1,16-37.9,30.6
		c-17.8,19.6-25.1,21.5-45.7,8.2c-15.1-9.1-29.7-11-47.5-10c-11,0.9-20.6,3.7-29.7,9.1c-3.7,1.8-7.3,3.7-11,5.5
		c-11,6.4-23.3,12.8-34.3,21.5C1014.5,1540.6,1007.7,1544.7,1000.3,1547.4z"/>
	<path class="st0" d="M1947.3,394.9c-6.4-5.5-15.1-8.2-23.3-11.9c-6.4-2.7-12.8-4.6-19.6-6.4l-4.6-0.9c-5.5-1.8-11-2.7-16.9-4.6
		l-4.6-0.9c-0.9-6.4,0.9-11.9,2.7-17.8c0.9-3.7,1.8-6.4,2.7-10.1c0-1.8,0.9-4.6,1.8-6.4c0.9-5.5,2.7-11.9,2.7-18.7
		c0-11-6.4-20.6-17.8-25.1c-10.1-3.7-20.6-0.9-27.9,8.2c-3.7,4.6-7.3,11-9.1,16.9c-3.7,11-6.4,21.5-9.1,32.4l-2.7,9.1
		c-18.7,0-54.8-4.6-70.8-9.1c0-1.8,0-3.7,0-5.5c0.9-8.2,1.8-16,3.7-24.2l1.8-16c1.8-11.9,1.8-20.6-2.7-27
		c-4.6-6.4-12.8-8.2-24.2-9.1c-11.9-0.9-20.6,3.7-24.2,15.1c-0.9,2.7-1.8,6.4-1.8,9.1c0,0.9,0,1.8-0.9,3.7l-10.1,51.2l-87.3,11V356
		c-0.9-3.7-1.8-6.4-1.8-10.1l-3.7-16.9c-1.8-10.1-3.7-20.6-6.4-30.6c-1.8-8.2-6.4-14.2-14.2-16c-9.1-2.7-19.6,0-27,7.3
		c-7.3,7.3-11,16.9-10.1,26c0.9,4.6,1.8,8.2,2.7,12.8c0.9,1.8,0.9,4.6,1.8,6.4l7.3,32.4l-71.7,25.1c-0.9-0.9-0.9-1.8-0.9-2.7
		c-1.8-3.7-4.6-7.3-5.5-11c-4.6-11-8.2-22.4-11-32.4c-1.8-6.4-5.5-14.2-14.2-17.8c-4.6-1.8-9.1-2.7-11.9-1.8
		c-9.1,2.7-17.8,9.1-21.5,18.7c-4.6,9.1-5.5,20.6-1.8,29.7c3.7,11,8.2,22.4,12.8,33.3l3.7,10.1c-5.5,3.7-10.1,6.4-15.1,10.1
		c-14.2,9.1-27,18.7-42,26l-5.5-7.3c-6.4-8.2-11.9-16-18.7-24.2l-1.8-2.7c-3.7-5.5-8.2-10.1-12.8-15.1c-4.6-3.7-10.1-6.4-16-5.5
		s-10.1,3.7-12.8,8.2l-2.7,3.7c-5.5,8.2-11,17.8-12.8,27.9v1.8l36.1,54.8c-7.3,11-16.9,20.6-26,28.8c-11,11-22.4,22.4-30.6,37
		l-0.9,1.8l0.9,1.8c8.2,15.1,15.1,23.3,26,23.3c1.8,0,4.6,0,7.3-0.9c5.5-0.9,11.9-4.6,16.9-9.1c12.8-11,27.9-25.1,42-39.7
		c20.6-20.6,44.8-43.9,74.5-59.4c6.4-3.7,12.8-7.3,19.6-11c7.3-3.7,15.1-8.2,22.4-11.9c35.2-16.9,70.8-34.3,110.6-42.9
		c39.7-7.3,76.3-12.8,113.3-15.1c3.7,0,7.3-0.9,11,0c10.1,0.9,19.6,1.8,29.7,3.7c25.1,2.7,51.2,5.5,77.2,10.1l10.1,1.8
		c25.1,3.7,51.2,8.2,73.5,24.2c9.1,6.4,22.4,8.2,35.2,4.6c5.5-1.8,11-4.6,15.1-9.1c4.6-5.5,6.4-11.9,5.5-18.7
		C1958.3,408.1,1953.7,400.8,1947.3,394.9z"/>
	<path class="st0" d="M1189.9,283.4c1.8,2.7,3.7,5.5,5.5,7.3c4.6,4.6,9.1,7.3,15.1,7.3c2.7,0,5.5-0.9,8.2-1.8
		c10.1-5.5,20.6-11.9,29.7-18.7c3.7-1.8,6.4-4.6,10.1-7.3c3.7-2.7,7.3-6.4,11.9-8.2c8.2-4.6,16.9-9.1,24.2-14.2
		c10.1-5.5,21.5-11.9,31.5-18.7c26-16.9,53-29.7,86.3-43.9c37-16,77.2-29.7,126.5-44.8c39.7-11.9,73.5-17.8,104.2-19.6
		c3.7,0,6.4,0,10.1,0c4.6,0,10.1,0,16,0c17.8-2.7,36.1-0.9,54.8,0.9c8.2,0.9,16,1.8,24.2,1.8c25.1,1.8,50.2,4.6,76.3,8.2
		c11,1.8,23.3,2.7,34.3,4.6h1.8l0.9-0.9c0,0,0.9-0.9,1.8-0.9c2.7-0.9,6.4-2.7,9.1-6.4c4.6-6.4,1.8-16.9-4.6-22.4
		c-1.8-1.8-4.6-3.7-7.3-4.6c-6.4-2.7-12.8-6.4-19.6-9.1c-27.9-12.8-56.6-27-89.1-29.7c-7.3-0.9-16-1.8-23.3-5.5
		c-17.8-6.4-36.1-8.2-60.3-7.3c-2.7,0-6.4,0-9.1,0c-30.6-3.7-61.2,1.8-90,7.3c-5.5,0.9-11.9,1.8-17.8,2.7c-27,4.6-53,11.9-78.1,20.6
		c-11,3.7-21.5,6.4-32.4,9.1c-3.7,0.9-8.2,2.7-11.9,4.6l-29.7,12.8c-11.9,5.5-24.2,11-36.1,16c-28.8,12.8-57.6,28.8-85.4,48.4
		c-31.5,22.4-60.3,49.3-84.5,79l-0.9,0.9c-0.9,0.9-1.8,1.8-2.7,2.7c-5.5,8.2-5.5,16.9,0,24.2L1189.9,283.4z"/>
	<path class="st0" d="M1266.2,1689.5c17.8-19.6,28.8-40.7,40.7-65.8c0.9-2.7,0.9-5.5,1.8-8.2c0-1.8,0-2.7,0-4.6l0.9-5.5h-5.5
		c-16.9,0.9-27,7.3-35.2,12.8c-3.7,2.7-6.4,5.5-10.1,8.2c-4.6,4.6-9.1,8.2-15.1,11.9c-26,17.8-50.2,24.2-76.3,17.8
		c-15.1-3.7-34.3-8.2-52.1-18.7c-6.4-3.7-15.1-2.7-19.6,3.7c-4.6,6.4-4.6,15.1,0.9,19.6c1.8,1.8,4.6,4.6,6.4,6.4
		c8.2,8.2,16.9,16.9,28.8,22.4l2.7,0.9c10.1,4.6,20.6,10,30.6,15.1c11,5.5,24.2,9.1,37.9,9.1
		C1226.9,1715.5,1248.4,1708.2,1266.2,1689.5z"/>
	<path class="st0" d="M1362.6,1832.5c-29.7-6.4-59.4-5.5-86.3,2.7c-24.2,7.3-49.3,17.8-67.6,40.7c-0.9,0.9-2.7,2.7-5.5,4.6
		c-1.8,0.9-3.7,2.7-5.5,4.6c-11,11-17.8,24.2-24.2,37l-0.9,2.7c-3.7,7.3,1.8,17.8,5.5,21.5c3.7,3.7,7.3,5.5,11.9,5.5
		c3.7,0,8.2-1.8,11.9-4.6c2.7-2.7,5.5-5.5,8.2-8.2l0.9-1.8c10.1-11.9,21.5-20.6,34.3-27c42-20.6,78.1-28.8,115.1-25.1
		c12.8,0.9,26,1.8,39.7-0.9l7.3-1.8v-7.3c0-0.9,0-0.9,0-1.8c0-2.7,0.9-7.3-2.7-11.9C1397.3,1849.4,1383.2,1837,1362.6,1832.5z"/>
	<path class="st0" d="M896.2,1209.8c11.9,0,24.2-3.7,36.1-10c1.8-0.9,3.7-1.8,5.5-2.7c4.6-2.7,10.1-5.5,15.1-9.1
		c14.2-10,27.9-7.3,44.8-0.9c31.5,12.8,61.2,16,90,10c5.5-0.9,11.9-3.7,17.8-4.6c3.7-0.9,7.3-2.7,11-3.7c9.1-2.7,17.8-7.3,25.1-16
		c1.8-1.8,2.7-2.7,4.6-4.6c3.7-3.7,6.4-6.4,9.1-10c11.9-18.7,32.4-24.2,50.3-27c22.4-3.7,43.9-12.8,67.6-28.8
		c11.9-8.2,20.6-20.6,26-36.1c1.8-6.4,1.8-15.1-0.9-22.4c-5.5-16.9-15.1-36.1-38.8-40.7c-5.5-0.9-10.1,0-14.2,2.7
		c-1.8,1.8-4.6,5.5-4.6,11.9c0,5.5,0.9,11.9,1.8,17.8c0,1.8,0.9,4.6,0.9,6.4c-5.5,18.7-21.5,24.2-37.9,29.7l-6.4,1.8
		c-6.4,1.8-12.8,3.7-20.6,4.6l-5.5,0.9c-25.1,5.5-47.5,16.9-64.9,35.2c-0.9,0.9-1.8,1.8-2.7,2.7c-1.8,0.9-2.7,2.7-4.6,3.7
		c-5.5,6.4-11.9,7.3-21.5,7.3c-28.8,0-52.1-11.9-70.8-37c-15.1-19.6-25.1-39.7-31.5-63l-5.5-20.6c-7.3-25.1-14.2-50.2-22.4-75.4
		c-16-47.5-30.6-97.8-47.5-155.3c-3.7-15.1-10.1-29.7-16-43.9l-0.9-1.8c-3.7-9.1-7.3-17.8-10.1-27c-9.1-26-19.6-52.1-33.3-77.2
		c-8.2-15.1-15.1-29.7-22.4-43.9c-3.7-8.2-8.2-16.9-11.9-25.1c-18.7-35.2-37.9-61.2-63-81.8c-10.1-8.2-18.7-17.8-27-27
		c-3.7-4.6-8.2-9.1-12.8-12.8c-0.9-0.9-1.8-1.8-2.7-2.7c-2.7-2.7-5.5-5.5-9.1-8.2c-8.2-5.5-17.8-11-26-16.9
		c-19.6-12.8-39.7-27-63-35.2c-16.9-6.4-35.2-11-53-15.1c-5.5-1.8-11.9-2.7-17.8-4.6c-11-2.7-22.4-5.5-37-8.2h-1.8
		c-9.1-1.8-19.6-3.7-29.7,0.9c-3.7,1.8-8.2,1.8-15.1,0c-33.3-6.4-69.9-4.6-110.6,4.6c-30.6,6.4-63,16-104.2,27.9
		c-11.9,3.7-23.3,10.1-34.3,16l-4.6,2.7c-33.3,18.7-64.9,40.7-94.6,65.8c-8.2,6.4-16,15.1-22.4,22.4c-2.7,3.7-6.4,6.4-9.1,10.1
		c-2.7,2.7-5.5,5.5-7.3,8.2l-3.7,4.6c-0.9,0.9-19.6,27-19.6,43.9c0,16,10,39.7,20.6,42.9c7.3,1.8,24.2,0,26,0h1.8l0.9-1.8
		c3.7-5.5,7.3-10.1,11-15.1c8.2-11.9,17.8-25.1,27-37c3.7-5.5,9.1-9.1,15.1-14.2c1.8-0.9,2.7-2.7,4.6-3.7l1.8-1.8
		c14.2-11,27.9-23.3,42.9-34.3c32.4-25.1,69.9-46.6,111.5-63c8.2-2.7,20.6-7.3,31.5-7.3c20.6,0.9,42-0.9,61.2-2.7
		c5.5-0.9,11-0.9,16-1.8c8.2-0.9,17.8,0,26,0.9c22.4,2.7,45.7,5.5,69,8.2c11,1.8,22.4,4.6,33.3,6.4l4.6,0.9
		c39.7,9.1,74.5,27.9,104.2,44.8c27,16,44.8,38.8,60.3,62.1l9.1,12.8c12.8,19.6,27,38.8,38.8,59.4c9.1,15.1,16.9,31.5,24.2,48.4
		l4.6,9.1c5.5,11.9,11,25.1,16,37l0.9,1.8c0.9,3.7,1.8,7.3,2.7,11c0,0.9,0,0.9,0,0.9c-4.6,0.9-10.1-0.9-15.1-1.8
		c-4.6-0.9-9.1-2.7-14.2-2.7h-4.6c-9.1,0-17.8,0-25.1-4.6v-10.1c0-11,0-21.5,0-32.4c0-1.8,0-3.7,0-4.6c0-2.7,0.9-5.5,0-7.3
		c-0.9-12.8-7.3-20.6-20.6-22.4c-12.8-1.8-23.3,4.6-26,16.9c-1.8,7.3-1.8,15.1-2.7,21.5l-0.9,6.4c-0.9,7.3-0.9,15.1-1.8,23.3
		l-0.9,8.2c-10.1-0.9-20.6-0.9-29.7,0c-11.9,0-23.3,0.9-35.2-0.9c0-0.9,0-2.7-0.9-3.7c-0.9-5.5-0.9-10.1-1.8-15.1
		c-0.9-10.1-0.9-21.5-0.9-32.4c0-16.9-11-24.2-20.6-28.8c-5.5-2.7-11-2.7-16-0.9c-5,1.8-9.1,5.5-11,11c-1.8,3.7-3.7,10.1-2.7,16.9
		c0,10.1,0.9,20.6,0.9,30.6l0.9,14.2c0,0.9,0,1.8,0,2.7c0,7.3-2.7,10.1-9.1,11c-11.9,1.8-25.1,4.6-37.9,6.4l-15.1,2.7c0,0,0,0,0-0.9
		c-1.8-2.7-2.7-5.5-3.7-7.3l-0.9-3.7c-3.7-9.1-7.3-19.6-9.1-29.7c-2.7-11.9-10-20.6-22.4-27c-5.5-2.7-11-3.7-16.9-1.8
		c-4.6,1.8-8.2,5.5-10,11c-2.7,6.4-3.7,14.2-2.7,19.6c0.9,5.5,1.8,11,2.7,16.9c1.8,11,2.7,23.3,7.3,35.2c2.7,6.4-0.9,8.2-2.7,8.2
		c-12.8,5.5-26,10.1-39.7,15.1l-12.8,4.6c-7.3-8.2-11.9-17.8-16.9-27c-1.8-4.6-4.6-8.2-6.4-12.8l-1.8-2.7c-2.7-4.6-5.5-9.1-8.2-12.8
		c-3.7-4.6-9.1-6.4-14.2-6.4c-5.5,0-10,2.7-14.2,8.2c-9.1,11-11,24.2-4.6,37c1.8,4.6,4.6,9.1,7.3,14.2c1.8,3.7,4.6,8.2,6.4,11.9
		c1.8,3.7,2.7,6.4,4.6,10.1c0,0.9,0.9,1.8,0.9,2.7c-7.3,6.4-16,11-25.1,16.9c-3.7,1.8-7.3,3.7-10,6.4l-0.9-0.9
		c-2.7-2.7-4.6-6.4-7.3-9.1s-4.6-6.4-7.3-9.1c-5.5-7.3-11.9-15.1-18.7-21.5c-6.9-6.4-12.8-10.1-19.6-8.2
		c-6.4,0.9-11.9,6.4-16.9,16.9c-5.5,14.2-3.7,26,4.6,37c6.4,8.2,12.8,16.9,19.6,25.1l6.4,7.3c-7.3,10.1-16.9,17.8-26,27
		c-2.7,2.7-5.5,5.5-9.1,8.2c-1.8,1.8-16,23.3-11.9,37.9c3.7,16.9,24.2,21.5,25.1,21.5l1.8,0.9l1.8-0.9c19.6-15.1,37-31.5,53.9-48.4
		c6.4-6.4,12.8-12.8,19.6-19.6c28.8-27,63-50.2,106.9-67.6c25.1-10.1,53.9-22.4,83.6-30.6c62.1-16.9,120.6-21.5,178.6-15.1
		c34.3,3.7,71.7,10.1,112.4,18.7c8.2,1.8,14.2,5.5,17.8,12.8c1.8,3.7,2.7,6.4,4.6,10.1c3.7,7.3,7.3,16,10.1,24.2l6.4,19.6
		c10.1,29.7,20.6,61.2,29.7,91.8c11,40.7,22.4,83.6,32.4,128.4c3.7,17.8,10.1,34.3,17.8,52.1c0.9,2.7,1.8,5.5,3.7,8.2
		c-3.7,1.8-7.3,4.6-11,7.3c-6.4,4.6-11,8.2-18.7,9.1l-5.5,0.9c-11,1.8-22.4,2.7-33.3-0.9l-18.7-31.5l-3.7,0.9
		c-16.9,4.6-20.6,17.8-21.5,27.9c-1.8,12.8,3.7,24.2,10.1,33.3C851,1197.9,872.9,1209.8,896.2,1209.8z"/>
</g>
</svg>
